<svg width="400" height="400" viewBox="0 0 400 400" fill="none" xmlns="http://www.w3.org/2000/svg">
<path d="M55 182H207V312H55V182Z" fill="#969EE1"/>
<path d="M131 109L217.603 181.75H44.3975L131 109Z" fill="#C7CDFC"/>
<rect x="113" y="259" width="36" height="53" fill="#FAFAFA"/>
<path d="M246 252H339V312H246V252Z" fill="#D5E41E"/>
<path d="M292.5 206L345.761 251H239.239L292.5 206Z" fill="#C3CC5C"/>
<rect x="281" y="279" width="23" height="33" fill="#FAFAFA"/>
<rect x="85" y="204" width="33" height="32" fill="white"/>
<rect x="144" y="204" width="33" height="32" fill="white"/>
<line x1="85" y1="219.5" x2="118.015" y2="219.5" stroke="#B7B7B7" stroke-width="3"/>
<line x1="101.5" y1="236" x2="101.5" y2="204" stroke="#B7B7B7" stroke-width="3"/>
<line x1="144" y1="219.5" x2="177.015" y2="219.5" stroke="#B7B7B7" stroke-width="3"/>
<line x1="160.5" y1="236" x2="160.5" y2="204" stroke="#B7B7B7" stroke-width="3"/>
</svg>
