<svg width="400" height="400" viewBox="0 0 400 400" fill="none" xmlns="http://www.w3.org/2000/svg">
<rect x="33" y="206" width="92" height="194" fill="#EEF07B"/>
<rect x="154" y="273" width="92" height="127" fill="#35EADF"/>
<rect x="275" y="333" width="92" height="67" fill="#52DA57"/>
<circle cx="78.5" cy="131.5" r="17.5" fill="#D9D9D9"/>
<path d="M53 169C53 157.954 61.9543 149 73 149H85C96.0457 149 105 157.954 105 169V206H53V169Z" fill="#D9D9D9"/>
<circle cx="199.5" cy="198.5" r="17.5" fill="#D9D9D9"/>
<path d="M174 236C174 224.954 182.954 216 194 216H206C217.046 216 226 224.954 226 236V273H174V236Z" fill="#D9D9D9"/>
<circle cx="320.5" cy="258.5" r="17.5" fill="#D9D9D9"/>
<path d="M295 296C295 284.954 303.954 276 315 276H327C338.046 276 347 284.954 347 296V333H295V296Z" fill="#D9D9D9"/>
<path d="M322.768 127.232C321.791 126.256 320.209 126.256 319.232 127.232L303.322 143.142C302.346 144.118 302.346 145.701 303.322 146.678C304.299 147.654 305.882 147.654 306.858 146.678L321 132.536L335.142 146.678C336.118 147.654 337.701 147.654 338.678 146.678C339.654 145.701 339.654 144.118 338.678 143.142L322.768 127.232ZM323.5 225.005V129H318.5V225.005H323.5Z" fill="#9F9F9F"/>
<path d="M201.768 127.232C200.791 126.256 199.209 126.256 198.232 127.232L182.322 143.142C181.346 144.118 181.346 145.701 182.322 146.678C183.299 147.654 184.882 147.654 185.858 146.678L200 132.536L214.142 146.678C215.118 147.654 216.701 147.654 217.678 146.678C218.654 145.701 218.654 144.118 217.678 143.142L201.768 127.232ZM202.5 164V129H197.5V164H202.5Z" fill="#9F9F9F"/>
</svg>
