<svg width="400" height="400" viewBox="0 0 400 400" fill="none" xmlns="http://www.w3.org/2000/svg">
<path d="M62.575 204.825V199.275C62.575 190.125 62.125 184.35 61.225 181.95C60.225 179.2 58.8 177.5 56.95 176.85C55.9 176.45 54.625 176.25 53.125 176.25C51.625 176.25 50.325 176.45 49.225 176.85C48.175 177.25 47.3 177.95 46.6 178.95C45.9 179.95 45.325 181 44.875 182.1C44.475 183.2 44.15 184.75 43.9 186.75C43.6 189.65 43.45 193.925 43.45 199.575V204.975C43.45 211.075 43.675 215.425 44.125 218.025C44.625 220.575 45.225 222.4 45.925 223.5C47.475 225.95 49.875 227.175 53.125 227.175C57.075 227.175 59.625 225.525 60.775 222.225C61.975 218.875 62.575 213.075 62.575 204.825ZM52.975 228.75C44.625 228.75 38.375 226.5 34.225 222C30.125 217.45 28.075 210.9 28.075 202.35C28.075 193.75 30.275 187 34.675 182.1C39.125 177.15 45.4 174.675 53.5 174.675C61.6 174.675 67.7 177.025 71.8 181.725C75.95 186.375 78.025 193 78.025 201.6C78.025 210.2 75.925 216.875 71.725 221.625C67.575 226.375 61.325 228.75 52.975 228.75ZM134.654 200.85C134.654 211.15 131.754 218.325 125.954 222.375C120.604 226.125 113.254 228 103.904 228H82.6785V226.575H87.6285V176.925H82.6785V175.5H105.854C115.454 175.5 122.654 177.475 127.454 181.425C132.254 185.325 134.654 191.8 134.654 200.85ZM102.254 226.575H105.104C110.154 226.575 113.754 224.8 115.904 221.25C118.104 217.65 119.204 211.65 119.204 203.25V198.9C119.204 187.65 117.054 180.875 112.754 178.575C110.704 177.475 107.804 176.925 104.054 176.925H102.254V226.575ZM183.149 175.5L183.899 194.325H182.474C180.274 187.675 178.324 183.15 176.624 180.75C174.924 178.3 172.474 177.075 169.274 177.075H168.374V226.425H174.749V228H147.374V226.425H153.749V177.075H152.774C149.574 177.075 147.099 178.35 145.349 180.9C143.599 183.4 141.674 187.875 139.574 194.325H138.149L138.899 175.5H183.149ZM187.096 171.75H205.471V226.65H209.671V228H187.396V226.65H191.521V173.1H187.096V171.75ZM230.851 228.75C224.401 228.75 219.551 227.1 216.301 223.8C213.101 220.45 211.501 215.825 211.501 209.925C211.501 203.975 213.301 199.425 216.901 196.275C220.551 193.125 225.176 191.55 230.776 191.55C242.126 191.55 247.576 197.25 247.126 208.65H225.976V211.575C225.976 216.475 226.601 220.175 227.851 222.675C229.101 225.175 231.276 226.425 234.376 226.425C240.176 226.425 243.976 223.325 245.776 217.125L247.126 217.35C246.176 220.95 244.451 223.75 241.951 225.75C239.501 227.75 235.801 228.75 230.851 228.75ZM226.051 207.15H233.776V203.475C233.776 199.425 233.526 196.675 233.026 195.225C232.576 193.725 231.626 192.975 230.176 192.975C228.776 192.975 227.726 193.775 227.026 195.375C226.376 196.925 226.051 199.625 226.051 203.475V207.15ZM267.798 210.375H269.973V204.6C269.973 199.85 269.698 196.675 269.148 195.075C268.648 193.425 267.648 192.6 266.148 192.6C265.248 192.6 264.423 192.85 263.673 193.35C262.973 193.8 262.623 194.45 262.623 195.3C262.623 196.1 262.773 196.925 263.073 197.775H264.948C265.348 198.825 265.548 200.1 265.548 201.6C265.548 203.05 264.923 204.325 263.673 205.425C262.423 206.475 260.848 207 258.948 207C254.648 207 252.498 204.925 252.498 200.775C252.498 194.625 257.723 191.55 268.173 191.55C274.123 191.55 278.223 192.575 280.473 194.625C282.773 196.625 283.923 200.325 283.923 205.725V220.95C283.923 223.55 284.648 224.85 286.098 224.85C287.798 224.85 288.798 222.275 289.098 217.125L290.223 217.2C290.023 221.6 289.198 224.625 287.748 226.275C286.298 227.925 283.923 228.75 280.623 228.75C274.623 228.75 271.173 226.9 270.273 223.2C269.623 225.1 268.648 226.5 267.348 227.4C266.048 228.3 264.148 228.75 261.648 228.75C254.248 228.75 250.548 225.725 250.548 219.675C250.548 216.125 251.948 213.7 254.748 212.4C257.598 211.05 261.948 210.375 267.798 210.375ZM264.798 219.6C264.798 222.2 264.923 223.875 265.173 224.625C265.473 225.375 265.998 225.75 266.748 225.75C267.548 225.75 268.273 225.125 268.923 223.875C269.623 222.575 269.973 220.8 269.973 218.55V211.575H269.448C266.348 211.575 264.798 213.85 264.798 218.4V219.6ZM316.01 194.4C314.16 194.4 312.535 195.6 311.135 198C309.735 200.4 309.035 203.25 309.035 206.55V226.65H314.36V228H290.96V226.65H295.085V193.65H290.96V192.3H309.035V199.5C309.685 196.95 310.935 195 312.785 193.65C314.635 192.25 316.735 191.55 319.085 191.55C321.435 191.55 323.335 192.225 324.785 193.575C326.285 194.875 327.035 196.75 327.035 199.2C327.035 201.6 326.485 203.45 325.385 204.75C324.285 206.05 322.585 206.7 320.285 206.7C318.035 206.7 316.36 205.95 315.26 204.45C314.21 202.95 314.085 200.875 314.885 198.225H317.585C318.835 195.675 318.31 194.4 316.01 194.4ZM328.244 192.3H346.319V199.2C347.119 196.9 348.344 195.05 349.994 193.65C351.644 192.25 354.144 191.55 357.494 191.55C365.244 191.55 369.119 195.725 369.119 204.075V226.65H373.319V228H352.094V226.65H355.169V202.275C355.169 199.275 354.969 197.35 354.569 196.5C354.169 195.6 353.444 195.15 352.394 195.15C350.794 195.15 349.369 196.2 348.119 198.3C346.919 200.4 346.319 202.95 346.319 205.95V226.65H349.544V228H328.244V226.65H332.369V193.65H328.244V192.3Z" fill="#A9A9A9"/>
</svg>
