<svg width="400" height="400" viewBox="0 0 400 400" fill="none" xmlns="http://www.w3.org/2000/svg">
<path d="M200.5 60L236.5 126.5L299.582 104.5V177.349L359 212.5L299.582 250.802V328L236.5 298L200.5 359L159 298L98 328L104.5 250.802L45.5 212.5L104.5 177.349L91.5 104.5L159 126.5L200.5 60Z" fill="#F0F1A8"/>
<path d="M124 169C124 163.477 128.477 159 134 159H266C271.523 159 276 163.477 276 169V249C276 254.523 271.523 259 266 259H134C128.477 259 124 254.523 124 249V169Z" fill="#EAEAEA"/>
<path d="M195.379 212.593C198.275 214.101 201.725 214.101 204.621 212.593L270.307 178.368C279.585 173.534 276.148 159.5 265.686 159.5H134.314C123.852 159.5 120.415 173.534 129.693 178.368L195.379 212.593Z" fill="#D9D9D9"/>
</svg>
