<svg width="400" height="400" viewBox="0 0 400 400" fill="none" xmlns="http://www.w3.org/2000/svg">
<circle cx="199" cy="63" r="30" fill="#D9D9D9"/>
<circle cx="55.5" cy="313.5" r="35" stroke="#59DE7E" stroke-width="5"/>
<circle cx="241.5" cy="313.5" r="35" stroke="#59DE7E" stroke-width="5"/>
<circle cx="342" cy="306" r="27.5" stroke="#E23131" stroke-width="5"/>
<circle cx="155.5" cy="314.5" r="35" stroke="#42D9EE" stroke-width="5"/>
<circle cx="292" cy="185" r="30" fill="#D9D9D9"/>
<circle cx="106" cy="185" r="30" fill="#D9D9D9"/>
<line x1="200.5" y1="93" x2="200.5" y2="124" stroke="#9E9E9E" stroke-width="5"/>
<line x1="107.5" y1="215" x2="107.5" y2="246" stroke="#9E9E9E" stroke-width="5"/>
<line x1="293.5" y1="215" x2="293.5" y2="246" stroke="#9E9E9E" stroke-width="5"/>
<line x1="107.5" y1="124" x2="107.5" y2="155" stroke="#9E9E9E" stroke-width="5"/>
<line x1="56.5" y1="246" x2="56.5" y2="277" stroke="#9E9E9E" stroke-width="5"/>
<line x1="155.5" y1="246" x2="155.5" y2="277" stroke="#9E9E9E" stroke-width="5"/>
<line x1="244.5" y1="246" x2="244.5" y2="277" stroke="#9E9E9E" stroke-width="5"/>
<line x1="343.5" y1="246" x2="343.5" y2="277" stroke="#9E9E9E" stroke-width="5"/>
<line x1="293.5" y1="124" x2="293.5" y2="155" stroke="#9E9E9E" stroke-width="5"/>
<line x1="292" y1="126.5" x2="106" y2="126.5" stroke="#9E9E9E" stroke-width="5"/>
<line x1="342" y1="248.5" x2="242" y2="248.5" stroke="#9E9E9E" stroke-width="5"/>
<line x1="156" y1="248.5" x2="56" y2="248.5" stroke="#9E9E9E" stroke-width="5"/>
<line x1="322.35" y1="327.069" x2="362.422" y2="286.997" stroke="#E23131" stroke-width="5"/>
<path d="M137 310H174V334H137V310Z" fill="#D5E41E"/>
<path d="M155.5 292L176.718 310H134.282L155.5 292Z" fill="#C3CC5C"/>
<rect x="151" y="321" width="9" height="13" fill="#FAFAFA"/>
<rect x="34" y="301" width="43" height="26" rx="4" fill="#7FDB77"/>
<path d="M58.32 313.392C59.424 314.16 60.248 314.904 60.792 315.624C61.336 316.344 61.584 317.2 61.536 318.192C61.488 319.104 61.072 319.84 60.288 320.4C59.52 320.944 58.552 321.272 57.384 321.384L57.12 323.52C57.088 323.712 57.008 323.88 56.88 324.024C56.768 324.168 56.6 324.24 56.376 324.24C56.264 324.24 56.12 324.216 55.944 324.168C55.816 324.12 55.728 324.072 55.68 324.024C55.632 323.992 55.616 323.936 55.632 323.856C55.728 323.504 55.832 322.936 55.944 322.152C55.976 321.832 56.008 321.592 56.04 321.432C55.416 321.4 54.816 321.328 54.24 321.216L53.904 323.136C53.872 323.312 53.792 323.464 53.664 323.592C53.536 323.736 53.36 323.808 53.136 323.808C53.024 323.808 52.88 323.784 52.704 323.736C52.448 323.656 52.344 323.544 52.392 323.4C52.504 323.016 52.632 322.432 52.776 321.648L52.92 320.904C51.864 320.552 51.024 320.072 50.4 319.464C49.776 318.856 49.464 318.128 49.464 317.28C49.464 316.832 49.568 316.48 49.776 316.224C50 315.952 50.28 315.816 50.616 315.816C50.616 316.68 50.848 317.424 51.312 318.048C51.776 318.672 52.416 319.168 53.232 319.536C53.648 317.824 54.072 315.568 54.504 312.768C53.8 312.352 53.264 311.984 52.896 311.664C52.528 311.328 52.272 310.976 52.128 310.608C51.984 310.24 51.912 309.784 51.912 309.24C51.912 308.424 52.232 307.8 52.872 307.368C53.528 306.936 54.312 306.656 55.224 306.528C55.32 305.392 55.4 304.64 55.464 304.272C55.48 304.128 55.624 304.072 55.896 304.104C56.264 304.152 56.424 304.944 56.376 306.48C56.888 306.512 57.36 306.56 57.792 306.624C57.856 305.664 57.888 304.992 57.888 304.608C57.888 304.448 58.024 304.384 58.296 304.416C58.68 304.464 58.872 305.296 58.872 306.912C59.432 307.104 59.864 307.352 60.168 307.656C60.488 307.96 60.648 308.296 60.648 308.664C60.504 308.728 60.344 308.76 60.168 308.76C59.976 308.76 59.776 308.728 59.568 308.664C59.376 308.584 59.128 308.472 58.824 308.328C58.696 309.944 58.528 311.632 58.32 313.392ZM57.72 307.8C57.24 307.608 56.768 307.504 56.304 307.488C56.192 308.592 56.008 310.008 55.752 311.736C56.552 312.216 57.048 312.52 57.24 312.648L57.336 312.72C57.512 311.12 57.624 309.776 57.672 308.688L57.72 307.8ZM53.256 309.192C53.256 309.544 53.384 309.872 53.64 310.176C53.896 310.48 54.272 310.792 54.768 311.112C54.864 310.36 54.968 309.44 55.08 308.352L55.152 307.536C54.512 307.6 54.032 307.76 53.712 308.016C53.408 308.272 53.256 308.664 53.256 309.192ZM54.456 319.944C54.904 320.056 55.504 320.144 56.256 320.208L56.28 320.04C56.584 318.616 56.88 316.68 57.168 314.232L56.376 313.8L55.512 313.344L54.456 319.944ZM57.528 320.184C58.488 320.104 59.2 319.872 59.664 319.488C60.128 319.088 60.336 318.56 60.288 317.904C60.24 317.328 60.08 316.816 59.808 316.368C59.536 315.904 58.984 315.4 58.152 314.856C57.976 316.376 57.848 317.448 57.768 318.072L57.528 320.184Z" fill="white"/>
<rect x="221" y="302" width="43" height="26" rx="4" fill="#7FDB77"/>
<path d="M245.32 314.392C246.424 315.16 247.248 315.904 247.792 316.624C248.336 317.344 248.584 318.2 248.536 319.192C248.488 320.104 248.072 320.84 247.288 321.4C246.52 321.944 245.552 322.272 244.384 322.384L244.12 324.52C244.088 324.712 244.008 324.88 243.88 325.024C243.768 325.168 243.6 325.24 243.376 325.24C243.264 325.24 243.12 325.216 242.944 325.168C242.816 325.12 242.728 325.072 242.68 325.024C242.632 324.992 242.616 324.936 242.632 324.856C242.728 324.504 242.832 323.936 242.944 323.152C242.976 322.832 243.008 322.592 243.04 322.432C242.416 322.4 241.816 322.328 241.24 322.216L240.904 324.136C240.872 324.312 240.792 324.464 240.664 324.592C240.536 324.736 240.36 324.808 240.136 324.808C240.024 324.808 239.88 324.784 239.704 324.736C239.448 324.656 239.344 324.544 239.392 324.4C239.504 324.016 239.632 323.432 239.776 322.648L239.92 321.904C238.864 321.552 238.024 321.072 237.4 320.464C236.776 319.856 236.464 319.128 236.464 318.28C236.464 317.832 236.568 317.48 236.776 317.224C237 316.952 237.28 316.816 237.616 316.816C237.616 317.68 237.848 318.424 238.312 319.048C238.776 319.672 239.416 320.168 240.232 320.536C240.648 318.824 241.072 316.568 241.504 313.768C240.8 313.352 240.264 312.984 239.896 312.664C239.528 312.328 239.272 311.976 239.128 311.608C238.984 311.24 238.912 310.784 238.912 310.24C238.912 309.424 239.232 308.8 239.872 308.368C240.528 307.936 241.312 307.656 242.224 307.528C242.32 306.392 242.4 305.64 242.464 305.272C242.48 305.128 242.624 305.072 242.896 305.104C243.264 305.152 243.424 305.944 243.376 307.48C243.888 307.512 244.36 307.56 244.792 307.624C244.856 306.664 244.888 305.992 244.888 305.608C244.888 305.448 245.024 305.384 245.296 305.416C245.68 305.464 245.872 306.296 245.872 307.912C246.432 308.104 246.864 308.352 247.168 308.656C247.488 308.96 247.648 309.296 247.648 309.664C247.504 309.728 247.344 309.76 247.168 309.76C246.976 309.76 246.776 309.728 246.568 309.664C246.376 309.584 246.128 309.472 245.824 309.328C245.696 310.944 245.528 312.632 245.32 314.392ZM244.72 308.8C244.24 308.608 243.768 308.504 243.304 308.488C243.192 309.592 243.008 311.008 242.752 312.736C243.552 313.216 244.048 313.52 244.24 313.648L244.336 313.72C244.512 312.12 244.624 310.776 244.672 309.688L244.72 308.8ZM240.256 310.192C240.256 310.544 240.384 310.872 240.64 311.176C240.896 311.48 241.272 311.792 241.768 312.112C241.864 311.36 241.968 310.44 242.08 309.352L242.152 308.536C241.512 308.6 241.032 308.76 240.712 309.016C240.408 309.272 240.256 309.664 240.256 310.192ZM241.456 320.944C241.904 321.056 242.504 321.144 243.256 321.208L243.28 321.04C243.584 319.616 243.88 317.68 244.168 315.232L243.376 314.8L242.512 314.344L241.456 320.944ZM244.528 321.184C245.488 321.104 246.2 320.872 246.664 320.488C247.128 320.088 247.336 319.56 247.288 318.904C247.24 318.328 247.08 317.816 246.808 317.368C246.536 316.904 245.984 316.4 245.152 315.856C244.976 317.376 244.848 318.448 244.768 319.072L244.528 321.184Z" fill="white"/>
</svg>
