<svg width="400" height="400" viewBox="0 0 400 400" fill="none" xmlns="http://www.w3.org/2000/svg">
<rect x="27" y="142" width="215" height="182" fill="#E4E4E4"/>
<rect x="262" y="142" width="40" height="182" fill="#E4E4E4"/>
<rect x="322" y="142" width="40" height="182" fill="#E4E4E4"/>
<rect x="322" y="142" width="40" height="132" fill="#D39090"/>
<path d="M152 128H134.9V127.05H138.2L130.75 113.85L122.8 127.05H128.1V128H117.75V127.05H121.1L129.85 112.35L119.4 94H116.7V93H133.55V94H130.15L136.9 106.1L144.45 94H139.25V93H149.5V94H146.2L137.75 107.5L149.1 127.05H152V128Z" fill="#A9A9A9"/>
<path d="M268.25 105.1V104.2H282.75V105.1H280.05L285.5 121.7L291.3 105.1H287.95V104.2H295V105.1H292.5L283.15 132.05C282.05 135.183 280.817 137.367 279.45 138.6C278.083 139.867 276.417 140.5 274.45 140.5C272.483 140.5 270.933 140.05 269.8 139.15C268.667 138.25 268.1 137.1 268.1 135.7C268.1 134.3 268.467 133.233 269.2 132.5C269.933 131.767 270.9 131.4 272.1 131.4C274.867 131.4 276.25 132.55 276.25 134.85C276.25 135.35 276.15 135.95 275.95 136.65H274.2C273.933 137.417 273.9 138.05 274.1 138.55C274.3 139.05 274.75 139.3 275.45 139.3C276.817 139.3 278.033 138.617 279.1 137.25C280.167 135.917 281.183 133.867 282.15 131.1L283.25 128H278.85L270.3 105.1H268.25Z" fill="#A9A9A9"/>
<path d="M345.75 114.55C345.75 111.117 345.583 108.817 345.25 107.65C344.917 106.45 344.267 105.85 343.3 105.85C342.333 105.85 341.467 106.45 340.7 107.65C339.933 108.85 339.55 110.5 339.55 112.6V121.9C339.55 123.333 339.833 124.55 340.4 125.55C341 126.55 341.833 127.05 342.9 127.05C344 127.05 344.75 126.317 345.15 124.85C345.55 123.383 345.75 120.817 345.75 117.15V114.55ZM339.55 90.5V108C340.817 105.133 342.983 103.7 346.05 103.7C352.283 103.7 355.4 107.85 355.4 116.15C355.4 120.383 354.533 123.5 352.8 125.5C351.1 127.5 348.533 128.5 345.1 128.5C343.367 128.5 342.033 128.233 341.1 127.7C340.2 127.167 339.583 126.283 339.25 125.05L338.9 128H327.5V127.1H330.25V91.4H327.5V90.5H339.55Z" fill="#A9A9A9"/>
<line x1="312.809" y1="232.949" x2="369.949" y2="175.809" stroke="#8F8F8F" stroke-width="6"/>
<line x1="315.121" y1="175.879" x2="372.262" y2="233.019" stroke="#8F8F8F" stroke-width="6"/>
</svg>
